<svg width="165" height="67" viewBox="0 0 165 67" fill="none" xmlns="http://www.w3.org/2000/svg">
<path d="M20.6191 26.4395C20.6191 28.0684 20.1094 29.4336 19.0898 30.5352C18.0703 31.6367 16.793 32.4746 15.2578 33.0488C16.4531 33.5527 17.2441 34.168 17.6309 34.8945L20.25 39.9043C21.3984 40.2676 22.1719 40.707 22.5703 41.2227L22.2012 44H16.1191L11.9707 35.1758C11.6074 34.2852 11.168 33.8398 10.6523 33.8398H8.31445V39.6055C10.0488 39.9922 11.1387 40.4609 11.584 41.0117L11.2148 44H1.49414L1.14258 41.0117C1.45898 40.6016 2.12109 40.2031 3.12891 39.8164V23.3633C2.13281 23.0117 1.4707 22.6074 1.14258 22.1504L1.49414 19.1621H10.6875C12.9258 19.1855 14.7773 19.4258 16.2422 19.8828C17.707 20.3281 18.8027 21.0781 19.5293 22.1328C20.2559 23.1758 20.6191 24.6113 20.6191 26.4395ZM10.4238 23.082H8.31445V29.9199H10.3535C11.9941 29.9199 13.2129 29.6738 14.0098 29.1816C14.8184 28.6895 15.2227 27.8047 15.2227 26.5273C15.2227 25.2617 14.8125 24.3711 13.9922 23.8555C13.1836 23.3398 11.9941 23.082 10.4238 23.082ZM23.6074 28.7773L23.959 26C25.3184 25.6836 26.5723 25.5254 27.7207 25.5254C28.2949 25.5254 28.8223 25.5371 29.3027 25.5605C29.7832 25.5723 30.2227 25.6016 30.6211 25.6484V40.0098C31.5586 40.3613 32.2207 40.7656 32.6074 41.2227L32.2559 44H23.959L23.6074 41.2227C23.9355 40.7656 24.5977 40.3613 25.5938 40.0098V29.9902C24.7383 29.709 24.0762 29.3047 23.6074 28.7773ZM43.0488 21.2188L43.4004 18.4414C44.7715 18.125 46.084 17.9668 47.3379 17.9668C48.5801 17.9668 49.6465 18.002 50.5371 18.0723V39.6758C51.2754 39.8047 51.9375 40.0098 52.5234 40.291V43.1387C51.0703 43.9004 49.2422 44.2812 47.0391 44.2812C46.8047 44.1641 46.5703 43.9531 46.3359 43.6484C46.1133 43.332 45.9902 43.0273 45.9668 42.7344C45.4395 43.168 44.7539 43.5371 43.9102 43.8418C43.0664 44.1348 42.2402 44.2812 41.4316 44.2812C38.8418 44.2812 36.9609 43.584 35.7891 42.1895C34.6289 40.7832 34.0488 38.4805 34.0488 35.2812C34.0488 31.6602 34.9395 29.1172 36.7207 27.6523C38.291 26.3633 40.207 25.7188 42.4688 25.7188C43.4531 25.7188 44.4609 25.8359 45.4922 26.0703V22.502C44.4023 22.209 43.5879 21.7812 43.0488 21.2188ZM42.1875 40.6074C43.5703 40.6074 44.6719 40.2031 45.4922 39.3945V29.7441C44.4844 29.5098 43.4414 29.3926 42.3633 29.3926C41.2617 29.3926 40.4648 29.873 39.9727 30.834C39.4805 31.7949 39.2344 33.248 39.2344 35.1934C39.2344 37.127 39.4746 38.5156 39.9551 39.3594C40.4355 40.1914 41.1797 40.6074 42.1875 40.6074ZM62.666 44.2812C59.7832 44.2812 57.6152 43.5137 56.1621 41.9785C54.709 40.4434 53.9824 38.2109 53.9824 35.2812C53.9824 33.5117 54.2344 31.9883 54.7383 30.7109C55.2422 29.4219 55.9277 28.4258 56.7949 27.7227C58.4707 26.3867 60.4277 25.7188 62.666 25.7188C64.1543 25.7188 65.4082 25.9648 66.4277 26.457C67.459 26.9375 68.2383 27.752 68.7656 28.9004C69.3047 30.0371 69.5742 31.5898 69.5742 33.5586C69.5742 35.293 68.7188 36.1602 67.0078 36.1602H59.2031C59.2969 37.6719 59.6836 38.7383 60.3633 39.3594C61.0547 39.9805 62.1445 40.291 63.6328 40.291C64.4414 40.291 65.2148 40.1973 65.9531 40.0098C66.7031 39.8105 67.248 39.6172 67.5879 39.4297L68.0977 39.1484L69.1699 42.0137C69.041 42.166 68.8359 42.377 68.5547 42.6465C68.3672 42.8223 67.9863 43.0391 67.4121 43.2969C66.8379 43.5547 66.1348 43.7832 65.3027 43.9824C64.4824 44.1816 63.6035 44.2812 62.666 44.2812ZM59.2383 33.1719L64.9336 32.9434C64.9805 32.6504 65.0039 32.2461 65.0039 31.7305C65.0039 31.25 64.8105 30.7402 64.4238 30.2012C64.0371 29.6621 63.3691 29.3926 62.4199 29.3926C61.4707 29.3926 60.7441 29.6797 60.2402 30.2539C59.7363 30.8281 59.4023 31.8008 59.2383 33.1719ZM77.4316 30.4297V39.9043C78.3223 40.2324 78.9785 40.6719 79.4004 41.2227L79.0488 44H72L71.6309 41.2227C72.0762 40.6719 72.7383 40.2324 73.6172 39.9043V23.2578C72.6328 22.9062 71.9473 22.4668 71.5605 21.9395L71.9121 19.1621H79.3301L86.502 33.1367C86.7715 33.6406 87.0293 34.2324 87.2754 34.9121C87.5332 35.5801 87.791 36.3301 88.0488 37.1621L88.2949 38.0234L88.6992 37.8828C88.3594 35.75 88.1895 33.998 88.1895 32.627V23.293C87.2988 22.9531 86.6426 22.502 86.2207 21.9395L86.5723 19.1621H93.6211L93.9902 21.9395C93.5449 22.502 92.8828 22.9531 92.0039 23.293V44H86.3613L79.1191 29.9199C78.6035 28.9473 78.0879 27.5938 77.5723 25.8594L77.3262 25.0332L76.9219 25.1738C77.2617 27.3066 77.4316 29.0586 77.4316 30.4297ZM113.027 34.5605C113.027 36.9043 112.629 38.791 111.832 40.2207C111.035 41.6387 109.951 42.6699 108.58 43.3145C107.221 43.9473 105.686 44.2637 103.975 44.2637C101.303 44.2637 99.2461 43.5547 97.8047 42.1367C96.375 40.707 95.6602 38.3105 95.6602 34.9473C95.6602 31.9238 96.4512 29.6328 98.0332 28.0742C99.627 26.5039 101.801 25.7188 104.555 25.7188C107.367 25.7188 109.482 26.4102 110.9 27.793C112.318 29.1758 113.027 31.4316 113.027 34.5605ZM100.898 34.8594C100.898 38.6914 102.053 40.6074 104.361 40.6074C105.533 40.6074 106.4 40.1738 106.963 39.3066C107.525 38.4277 107.807 36.9922 107.807 35C107.807 31.2617 106.629 29.3926 104.273 29.3926C103.125 29.3926 102.275 29.8086 101.725 30.6406C101.174 31.4609 100.898 32.8672 100.898 34.8594ZM141.012 30.1484L136.512 44.2109H131.836L129.99 38.5332C129.627 37.373 129.328 35.9316 129.094 34.209L128.988 33.3477H128.479C128.361 34.2852 128.209 35.1816 128.021 36.0371C127.846 36.8926 127.641 37.7129 127.406 38.498L125.719 44.2109H120.604L116.068 30.0605C115.037 29.709 114.328 29.2812 113.941 28.7773L114.293 26H122.73L123.082 28.7773C122.648 29.2812 121.916 29.709 120.885 30.0605L122.977 39.2539H123.486C123.615 38.6094 123.756 37.9648 123.908 37.3203C124.061 36.6641 124.23 35.9961 124.418 35.3164L126.861 26.0703H130.904L133.312 35.2461L134.209 39.2539H134.719C135.598 35.1875 136.195 32.4629 136.512 31.0801L136.723 30.0605C135.656 29.6973 134.941 29.2695 134.578 28.7773L134.93 26H142.928L143.279 28.7773C142.881 29.3164 142.125 29.7734 141.012 30.1484Z" fill="white"/>
<path d="M0.412598 52.1099L0.539551 51.0308H3.58643L3.71338 52.1099C3.57373 52.2749 3.33675 52.4209 3.00244 52.5479V58.4893C3.33675 58.6247 3.57373 58.7686 3.71338 58.9209L3.58643 60H0.539551L0.412598 58.9209C0.526855 58.7728 0.765951 58.6289 1.12988 58.4893V52.5479C0.770182 52.4209 0.531087 52.2749 0.412598 52.1099ZM4.4751 54.5029L4.60205 53.5C5.06755 53.3942 5.49707 53.3413 5.89062 53.3413C6.08105 53.3413 6.25456 53.3455 6.41113 53.354C6.57194 53.3582 6.71582 53.3646 6.84277 53.373V54.0205C7.05859 53.8385 7.34635 53.6904 7.70605 53.5762C8.06576 53.4577 8.41064 53.3984 8.74072 53.3984C9.30778 53.3984 9.75846 53.4852 10.0928 53.6587C10.4271 53.828 10.6683 54.1073 10.8164 54.4966C10.9645 54.8859 11.0386 55.4064 11.0386 56.0581V58.5591C11.3771 58.686 11.6162 58.832 11.7559 58.9971L11.6226 60H8.63281L8.50586 58.9971C8.62435 58.832 8.86344 58.686 9.22314 58.5591V55.9819C9.22314 55.5122 9.14697 55.1991 8.99463 55.0425C8.87614 54.9155 8.70475 54.8394 8.48047 54.814C8.25618 54.7843 8.01286 54.8034 7.75049 54.8711C7.48812 54.9388 7.24056 55.0531 7.00781 55.2139V58.5591C7.34635 58.686 7.58545 58.832 7.7251 58.9971L7.59814 60H4.60205L4.4751 58.9971C4.59359 58.832 4.83268 58.686 5.19238 58.5591V54.9409C4.88346 54.8394 4.64437 54.6934 4.4751 54.5029ZM14.8027 54.5664C14.2314 54.5664 13.9458 54.7357 13.9458 55.0742C13.9458 55.3958 14.2463 55.6328 14.8472 55.7852L15.8691 56.0581C16.9271 56.3374 17.4561 56.9489 17.4561 57.8926C17.4561 58.54 17.2297 59.0711 16.7769 59.4858C16.5483 59.689 16.2415 59.8413 15.8564 59.9429C15.4714 60.0402 15.0566 60.0931 14.6123 60.1016C14.1722 60.11 13.7448 60.0783 13.3301 60.0063C12.9154 59.9344 12.5662 59.8286 12.2827 59.689C12.2785 59.6424 12.2743 59.5959 12.27 59.5493C12.27 59.4985 12.27 59.4499 12.27 59.4033C12.27 58.9251 12.3652 58.4956 12.5557 58.1147H13.6348C13.7533 58.3306 13.8273 58.5464 13.8569 58.7622C14.022 58.8172 14.2695 58.8447 14.5996 58.8447C15.3613 58.8447 15.7422 58.6268 15.7422 58.1909C15.7422 58.0555 15.6914 57.9412 15.5898 57.8481C15.4798 57.7593 15.2746 57.6704 14.9741 57.5815L13.9458 57.2832C13.4168 57.1351 13.0042 56.9172 12.708 56.6294C12.416 56.3374 12.27 55.9079 12.27 55.3408C12.27 54.7695 12.5007 54.304 12.9619 53.9443C13.1904 53.7624 13.4761 53.627 13.8188 53.5381C14.1659 53.4492 14.5361 53.4027 14.9297 53.3984C15.3232 53.39 15.7083 53.4196 16.085 53.4873C16.4616 53.5508 16.798 53.646 17.0942 53.7729C17.0985 53.8153 17.1006 53.8576 17.1006 53.8999C17.1048 53.9422 17.1069 53.9867 17.1069 54.0332C17.1069 54.4775 17.0117 54.8944 16.8213 55.2837H15.7549C15.6364 55.0763 15.5623 54.8669 15.5327 54.6553C15.283 54.596 15.0397 54.5664 14.8027 54.5664ZM19.4873 51.8623H20.4331V53.5H22.293V54.5918H20.4331V57.8799C20.4331 58.1634 20.4733 58.3644 20.5537 58.4829C20.613 58.576 20.723 58.6353 20.8838 58.6606C21.0488 58.6818 21.2371 58.6755 21.4487 58.6416C21.6603 58.6077 21.8634 58.5527 22.0581 58.4766L22.4517 59.4922C21.783 59.8307 21.0996 60 20.4014 60C19.7031 60 19.2313 59.8519 18.9858 59.5557C18.7404 59.2552 18.6177 58.8193 18.6177 58.248V54.5918H18.0337L17.8877 53.7983C18.0273 53.6333 18.313 53.4683 18.7446 53.3032C18.8547 52.5881 19.1022 52.1077 19.4873 51.8623ZM23.1689 54.4648C23.1689 54.3971 23.1689 54.3294 23.1689 54.2617C23.1732 54.1898 23.1774 54.1178 23.1816 54.0459C23.9899 53.6143 24.8574 53.3984 25.7842 53.3984C26.7109 53.3984 27.3753 53.5741 27.7773 53.9253C28.1794 54.2765 28.3804 54.8584 28.3804 55.6709V58.4385C28.6808 58.502 28.9199 58.576 29.0977 58.6606V59.7905C28.666 59.9979 28.0334 60.1016 27.1997 60.1016C27.1108 59.8688 27.0368 59.5959 26.9775 59.2827C26.6051 59.8286 25.9302 60.1016 24.9526 60.1016C24.5675 60.1016 24.2142 60.0254 23.8926 59.873C23.5752 59.7207 23.3213 59.5049 23.1309 59.2256C22.9404 58.9421 22.8452 58.6056 22.8452 58.2163C22.8452 57.6366 23.0378 57.1816 23.4229 56.8516C23.8079 56.5173 24.3813 56.3501 25.1431 56.3501H26.5649V55.7217C26.5649 55.0446 26.2052 54.7061 25.4858 54.7061C25.2065 54.7061 24.9844 54.7336 24.8193 54.7886C24.7982 55.1567 24.7474 55.4382 24.667 55.6328H23.3911C23.243 55.3239 23.1689 54.9346 23.1689 54.4648ZM25.5112 58.7749C25.9556 58.7749 26.3068 58.6458 26.5649 58.3877V57.3213H25.6509C25.0288 57.3213 24.7178 57.5604 24.7178 58.0386C24.7178 58.2544 24.7834 58.4321 24.9146 58.5718C25.05 58.7072 25.2489 58.7749 25.5112 58.7749ZM29.561 54.5029L29.688 53.5C30.1535 53.3942 30.583 53.3413 30.9766 53.3413C31.167 53.3413 31.3405 53.3455 31.4971 53.354C31.6579 53.3582 31.8018 53.3646 31.9287 53.373V54.0205C32.1445 53.8385 32.4323 53.6904 32.792 53.5762C33.1517 53.4577 33.4966 53.3984 33.8267 53.3984C34.3937 53.3984 34.8444 53.4852 35.1787 53.6587C35.513 53.828 35.7542 54.1073 35.9023 54.4966C36.0505 54.8859 36.1245 55.4064 36.1245 56.0581V58.5591C36.4631 58.686 36.7021 58.832 36.8418 58.9971L36.7085 60H33.7188L33.5918 58.9971C33.7103 58.832 33.9494 58.686 34.3091 58.5591V55.9819C34.3091 55.5122 34.2329 55.1991 34.0806 55.0425C33.9621 54.9155 33.7907 54.8394 33.5664 54.814C33.3421 54.7843 33.0988 54.8034 32.8364 54.8711C32.5741 54.9388 32.3265 55.0531 32.0938 55.2139V58.5591C32.4323 58.686 32.6714 58.832 32.811 58.9971L32.6841 60H29.688L29.561 58.9971C29.6795 58.832 29.9186 58.686 30.2783 58.5591V54.9409C29.9694 54.8394 29.7303 54.6934 29.561 54.5029ZM38.708 51.8623H39.6538V53.5H41.5137V54.5918H39.6538V57.8799C39.6538 58.1634 39.694 58.3644 39.7744 58.4829C39.8337 58.576 39.9437 58.6353 40.1045 58.6606C40.2695 58.6818 40.4578 58.6755 40.6694 58.6416C40.881 58.6077 41.0841 58.5527 41.2788 58.4766L41.6724 59.4922C41.0037 59.8307 40.3203 60 39.6221 60C38.9238 60 38.452 59.8519 38.2065 59.5557C37.9611 59.2552 37.8384 58.8193 37.8384 58.248V54.5918H37.2544L37.1084 53.7983C37.248 53.6333 37.5337 53.4683 37.9653 53.3032C38.0754 52.5881 38.3229 52.1077 38.708 51.8623ZM45.3286 61.3013C45.6418 61.3013 45.8618 61.2209 45.9888 61.0601C46.12 60.8993 46.1855 60.584 46.1855 60.1143V52.5479C45.8343 52.4209 45.5973 52.2749 45.4746 52.1099L45.6016 51.0308H48.6421L48.7754 52.1099C48.6357 52.2749 48.3966 52.4209 48.0581 52.5479L48.0454 60C48.0454 61.0029 47.8529 61.7033 47.4678 62.1011C47.2646 62.3127 46.9938 62.4671 46.6553 62.5645C46.3167 62.666 45.9507 62.7126 45.5571 62.7041C45.1636 62.6956 44.7764 62.6343 44.3955 62.52C44.0104 62.4058 43.6719 62.2407 43.3799 62.0249V61.752C43.3799 61.6631 43.3926 61.5298 43.418 61.3521C43.4434 61.1785 43.4814 60.9945 43.5322 60.7998C43.5788 60.6094 43.6359 60.4465 43.7036 60.311H44.8779C44.9964 60.4972 45.0811 60.8231 45.1318 61.2886C45.1911 61.297 45.2567 61.3013 45.3286 61.3013ZM55.6436 56.5913C55.6436 57.4377 55.4997 58.119 55.2119 58.6353C54.9242 59.1473 54.5327 59.5197 54.0376 59.7524C53.5467 59.981 52.9924 60.0952 52.3745 60.0952C51.4097 60.0952 50.667 59.8392 50.1465 59.3271C49.6302 58.8109 49.3721 57.9455 49.3721 56.731C49.3721 55.6392 49.6577 54.8118 50.229 54.249C50.8045 53.682 51.5895 53.3984 52.584 53.3984C53.5996 53.3984 54.3634 53.6481 54.8755 54.1475C55.3875 54.6468 55.6436 55.4614 55.6436 56.5913ZM51.2637 56.6992C51.2637 58.083 51.6805 58.7749 52.5142 58.7749C52.9373 58.7749 53.2505 58.6183 53.4536 58.3052C53.6567 57.9878 53.7583 57.4694 53.7583 56.75C53.7583 55.4001 53.333 54.7251 52.4824 54.7251C52.0677 54.7251 51.7609 54.8753 51.562 55.1758C51.3631 55.472 51.2637 55.9798 51.2637 56.6992ZM61.0898 59.4541C60.4932 59.8857 59.7907 60.1016 58.9824 60.1016C58.1699 60.1016 57.6029 59.9344 57.2812 59.6001C56.9639 59.2616 56.8052 58.7093 56.8052 57.9434V54.9409C56.4963 54.8394 56.2572 54.6934 56.0879 54.5029L56.2148 53.5C56.7057 53.3857 57.1585 53.3286 57.5732 53.3286C57.7806 53.3286 57.971 53.3328 58.1445 53.3413C58.318 53.3455 58.4767 53.3561 58.6206 53.373V57.5181C58.6206 57.9878 58.6925 58.2967 58.8364 58.4448C58.9507 58.5633 59.1284 58.6374 59.3696 58.667C59.6108 58.6924 59.8669 58.6712 60.1377 58.6035C60.4128 58.5358 60.6582 58.4215 60.874 58.2607V54.9409C60.5651 54.8394 60.326 54.6934 60.1567 54.5029L60.29 53.5C60.7725 53.3857 61.2231 53.3286 61.6421 53.3286C61.8494 53.3286 62.0399 53.3328 62.2134 53.3413C62.3869 53.3455 62.5456 53.3561 62.6895 53.373V58.4385C62.9899 58.502 63.229 58.576 63.4067 58.6606V59.689C62.882 59.964 62.2282 60.1016 61.4453 60.1016C61.2253 59.9492 61.1068 59.7334 61.0898 59.4541ZM67.8374 55.0996C67.1857 55.0996 66.7308 55.2244 66.4727 55.4741V58.4512C67.1836 58.5866 67.666 58.7686 67.9199 58.9971L67.7866 60H64.0669L63.9399 58.9971C64.0584 58.832 64.2975 58.686 64.6572 58.5591V54.9409C64.3483 54.8394 64.1092 54.6934 63.9399 54.5029L64.0669 53.5C64.5324 53.3942 64.9619 53.3413 65.3555 53.3413C65.5459 53.3413 65.7194 53.3455 65.876 53.354C66.0368 53.3582 66.1807 53.3646 66.3076 53.373V54.1919C66.5065 53.9549 66.7625 53.7603 67.0757 53.6079C67.3381 53.4852 67.6004 53.4132 67.8628 53.3921C68.1252 53.3709 68.3219 53.39 68.4531 53.4492L68.415 55.1377C68.2458 55.1123 68.0532 55.0996 67.8374 55.0996ZM68.98 54.5029L69.1069 53.5C69.5724 53.3942 70.002 53.3413 70.3955 53.3413C70.5859 53.3413 70.7594 53.3455 70.916 53.354C71.0768 53.3582 71.2207 53.3646 71.3477 53.373V54.0205C71.5635 53.8385 71.8512 53.6904 72.2109 53.5762C72.5706 53.4577 72.9155 53.3984 73.2456 53.3984C73.8127 53.3984 74.2633 53.4852 74.5977 53.6587C74.932 53.828 75.1732 54.1073 75.3213 54.4966C75.4694 54.8859 75.5435 55.4064 75.5435 56.0581V58.5591C75.882 58.686 76.1211 58.832 76.2607 58.9971L76.1274 60H73.1377L73.0107 58.9971C73.1292 58.832 73.3683 58.686 73.728 58.5591V55.9819C73.728 55.5122 73.6519 55.1991 73.4995 55.0425C73.381 54.9155 73.2096 54.8394 72.9854 54.814C72.7611 54.7843 72.5177 54.8034 72.2554 54.8711C71.993 54.9388 71.7454 55.0531 71.5127 55.2139V58.5591C71.8512 58.686 72.0903 58.832 72.23 58.9971L72.103 60H69.1069L68.98 58.9971C69.0985 58.832 69.3376 58.686 69.6973 58.5591V54.9409C69.3883 54.8394 69.1493 54.6934 68.98 54.5029ZM79.8345 60.1016C78.7935 60.1016 78.0106 59.8244 77.4858 59.27C76.9611 58.7157 76.6987 57.9095 76.6987 56.8516C76.6987 56.2126 76.7897 55.6624 76.9717 55.2012C77.1536 54.7357 77.4012 54.376 77.7144 54.1221C78.3195 53.6396 79.0262 53.3984 79.8345 53.3984C80.3719 53.3984 80.8247 53.4873 81.1929 53.665C81.5653 53.8385 81.8467 54.1326 82.0371 54.5474C82.2318 54.9578 82.3291 55.5186 82.3291 56.2295C82.3291 56.8558 82.0202 57.1689 81.4023 57.1689H78.584C78.6178 57.7148 78.7575 58.0999 79.0029 58.3242C79.2526 58.5485 79.6462 58.6606 80.1836 58.6606C80.4756 58.6606 80.7549 58.6268 81.0215 58.5591C81.2923 58.4871 81.4891 58.4173 81.6118 58.3496L81.7959 58.248L82.1831 59.2827C82.1366 59.3377 82.0625 59.4139 81.9609 59.5112C81.8932 59.5747 81.7557 59.653 81.5483 59.7461C81.341 59.8392 81.0871 59.9217 80.7866 59.9937C80.4904 60.0656 80.173 60.1016 79.8345 60.1016ZM78.5967 56.0898L80.6533 56.0073C80.6702 55.9015 80.6787 55.7555 80.6787 55.5693C80.6787 55.3958 80.6089 55.2118 80.4692 55.0171C80.3296 54.8224 80.0884 54.7251 79.7456 54.7251C79.4028 54.7251 79.1405 54.8288 78.9585 55.0361C78.7765 55.2435 78.6559 55.5947 78.5967 56.0898ZM84.5698 61.5107H84.7539C84.9105 61.5107 85.0776 61.3647 85.2554 61.0728C85.4331 60.7808 85.5558 60.4359 85.6235 60.0381L83.4907 54.998C83.0675 54.8584 82.7819 54.6934 82.6338 54.5029L82.7607 53.5H85.7568L85.8838 54.5029C85.7653 54.6383 85.5749 54.7632 85.3125 54.8774L86.0298 56.8389C86.1821 57.2536 86.29 57.6577 86.3535 58.0513L86.3916 58.229H86.5757C86.6476 57.7931 86.7682 57.3382 86.9375 56.8643L87.623 54.9409C87.3099 54.8224 87.0856 54.6764 86.9502 54.5029L87.0771 53.5H89.9399L90.0669 54.5029C89.9103 54.7018 89.6247 54.8711 89.21 55.0107L87.0645 60.0762C86.6582 61.0452 86.3472 61.6652 86.1313 61.936C85.7505 62.4481 85.2194 62.7041 84.5381 62.7041C83.8568 62.7041 83.3384 62.5264 82.9829 62.1709C82.9787 62.1286 82.9744 62.0841 82.9702 62.0376C82.9702 61.9953 82.9702 61.953 82.9702 61.9106C82.9702 61.4409 83.0697 60.9902 83.2686 60.5586H84.3477C84.4746 60.7871 84.5487 61.1045 84.5698 61.5107ZM92.9805 54.5664C92.4092 54.5664 92.1235 54.7357 92.1235 55.0742C92.1235 55.3958 92.424 55.6328 93.0249 55.7852L94.0469 56.0581C95.1048 56.3374 95.6338 56.9489 95.6338 57.8926C95.6338 58.54 95.4074 59.0711 94.9546 59.4858C94.7261 59.689 94.4193 59.8413 94.0342 59.9429C93.6491 60.0402 93.2344 60.0931 92.79 60.1016C92.3499 60.11 91.9225 60.0783 91.5078 60.0063C91.0931 59.9344 90.744 59.8286 90.4604 59.689C90.4562 59.6424 90.452 59.5959 90.4478 59.5493C90.4478 59.4985 90.4478 59.4499 90.4478 59.4033C90.4478 58.9251 90.543 58.4956 90.7334 58.1147H91.8125C91.931 58.3306 92.005 58.5464 92.0347 58.7622C92.1997 58.8172 92.4473 58.8447 92.7773 58.8447C93.5391 58.8447 93.9199 58.6268 93.9199 58.1909C93.9199 58.0555 93.8691 57.9412 93.7676 57.8481C93.6576 57.7593 93.4523 57.6704 93.1519 57.5815L92.1235 57.2832C91.5946 57.1351 91.182 56.9172 90.8857 56.6294C90.5938 56.3374 90.4478 55.9079 90.4478 55.3408C90.4478 54.7695 90.6784 54.304 91.1396 53.9443C91.3682 53.7624 91.6538 53.627 91.9966 53.5381C92.3436 53.4492 92.7139 53.4027 93.1074 53.3984C93.501 53.39 93.8861 53.4196 94.2627 53.4873C94.6393 53.5508 94.9757 53.646 95.272 53.7729C95.2762 53.8153 95.2783 53.8576 95.2783 53.8999C95.2826 53.9422 95.2847 53.9867 95.2847 54.0332C95.2847 54.4775 95.1895 54.8944 94.999 55.2837H93.9326C93.8141 55.0763 93.7401 54.8669 93.7104 54.6553C93.4608 54.596 93.2174 54.5664 92.9805 54.5664ZM96.3765 59.1558C96.3765 58.4956 96.7446 58.1655 97.481 58.1655C98.2173 58.1655 98.5854 58.4956 98.5854 59.1558C98.5854 59.7355 98.4373 60.2751 98.1411 60.7744C97.8491 61.2738 97.4958 61.6694 97.0811 61.9614L96.5352 61.625C96.8187 61.151 96.9604 60.6834 96.9604 60.2222C96.9604 60.1672 96.9562 60.1016 96.9478 60.0254C96.7827 59.9746 96.6452 59.8688 96.5352 59.708C96.4294 59.5472 96.3765 59.3631 96.3765 59.1558ZM104.698 57.6196L105.663 57.7402V60H99.6265L99.4995 58.9209C99.6138 58.7728 99.8529 58.6289 100.217 58.4893V52.5479C99.8571 52.4209 99.618 52.2749 99.4995 52.1099L99.6265 51.0308H105.555V53.2905L104.597 53.4111C104.394 53.2376 104.233 52.916 104.114 52.4463H102.089V54.6807H103.892C103.998 54.4268 104.106 54.2448 104.216 54.1348L105.035 54.23V56.5405L104.216 56.6484C104.11 56.5596 104.002 56.3776 103.892 56.1025H102.089V58.5845H104.216C104.33 58.1274 104.491 57.8058 104.698 57.6196ZM112.76 55.0107L110.614 60.0762H109.186L107.053 55.0107C106.622 54.8711 106.332 54.7018 106.184 54.5029L106.311 53.5H109.307L109.434 54.5029C109.315 54.6426 109.129 54.7674 108.875 54.8774L109.58 56.8389C109.656 57.0462 109.721 57.2515 109.776 57.4546C109.836 57.6535 109.882 57.8524 109.916 58.0513L109.941 58.229H110.125C110.197 57.7931 110.318 57.3382 110.487 56.8643L111.173 54.9409C110.86 54.8224 110.635 54.6764 110.5 54.5029L110.627 53.5H113.49L113.617 54.5029C113.46 54.7018 113.174 54.8711 112.76 55.0107ZM117.171 60.1016C116.13 60.1016 115.347 59.8244 114.823 59.27C114.298 58.7157 114.036 57.9095 114.036 56.8516C114.036 56.2126 114.127 55.6624 114.309 55.2012C114.491 54.7357 114.738 54.376 115.051 54.1221C115.656 53.6396 116.363 53.3984 117.171 53.3984C117.709 53.3984 118.162 53.4873 118.53 53.665C118.902 53.8385 119.184 54.1326 119.374 54.5474C119.569 54.9578 119.666 55.5186 119.666 56.2295C119.666 56.8558 119.357 57.1689 118.739 57.1689H115.921C115.955 57.7148 116.094 58.0999 116.34 58.3242C116.59 58.5485 116.983 58.6606 117.521 58.6606C117.812 58.6606 118.092 58.6268 118.358 58.5591C118.629 58.4871 118.826 58.4173 118.949 58.3496L119.133 58.248L119.52 59.2827C119.473 59.3377 119.399 59.4139 119.298 59.5112C119.23 59.5747 119.093 59.653 118.885 59.7461C118.678 59.8392 118.424 59.9217 118.124 59.9937C117.827 60.0656 117.51 60.1016 117.171 60.1016ZM115.934 56.0898L117.99 56.0073C118.007 55.9015 118.016 55.7555 118.016 55.5693C118.016 55.3958 117.946 55.2118 117.806 55.0171C117.667 54.8224 117.425 54.7251 117.083 54.7251C116.74 54.7251 116.477 54.8288 116.295 55.0361C116.113 55.2435 115.993 55.5947 115.934 56.0898ZM124.23 55.0996C123.578 55.0996 123.123 55.2244 122.865 55.4741V58.4512C123.576 58.5866 124.059 58.7686 124.312 58.9971L124.179 60H120.459L120.333 58.9971C120.451 58.832 120.69 58.686 121.05 58.5591V54.9409C120.741 54.8394 120.502 54.6934 120.333 54.5029L120.459 53.5C120.925 53.3942 121.354 53.3413 121.748 53.3413C121.938 53.3413 122.112 53.3455 122.269 53.354C122.429 53.3582 122.573 53.3646 122.7 53.373V54.1919C122.899 53.9549 123.155 53.7603 123.468 53.6079C123.731 53.4852 123.993 53.4132 124.255 53.3921C124.518 53.3709 124.715 53.39 124.846 53.4492L124.808 55.1377C124.638 55.1123 124.446 55.0996 124.23 55.0996ZM126.947 61.5107H127.131C127.287 61.5107 127.455 61.3647 127.632 61.0728C127.81 60.7808 127.933 60.4359 128 60.0381L125.868 54.998C125.444 54.8584 125.159 54.6934 125.011 54.5029L125.138 53.5H128.134L128.261 54.5029C128.142 54.6383 127.952 54.7632 127.689 54.8774L128.407 56.8389C128.559 57.2536 128.667 57.6577 128.73 58.0513L128.769 58.229H128.953C129.025 57.7931 129.145 57.3382 129.314 56.8643L130 54.9409C129.687 54.8224 129.463 54.6764 129.327 54.5029L129.454 53.5H132.317L132.444 54.5029C132.287 54.7018 132.002 54.8711 131.587 55.0107L129.441 60.0762C129.035 61.0452 128.724 61.6652 128.508 61.936C128.127 62.4481 127.596 62.7041 126.915 62.7041C126.234 62.7041 125.715 62.5264 125.36 62.1709C125.356 62.1286 125.351 62.0841 125.347 62.0376C125.347 61.9953 125.347 61.953 125.347 61.9106C125.347 61.4409 125.447 60.9902 125.646 60.5586H126.725C126.852 60.7871 126.926 61.1045 126.947 61.5107ZM136.722 53.0049L135.903 52.9033V51.0435H143.184V52.9033L142.365 53.0049C142.251 52.9245 142.143 52.7425 142.042 52.459H140.48V58.4893C140.819 58.6247 141.058 58.7686 141.197 58.9209L141.064 60H138.023L137.89 58.9209C138.004 58.7728 138.243 58.6289 138.607 58.4893V52.459H137.046C136.944 52.7425 136.836 52.9245 136.722 53.0049ZM143.654 54.5029L143.781 53.5C144.272 53.3857 144.724 53.3286 145.139 53.3286C145.347 53.3286 145.537 53.3328 145.71 53.3413C145.884 53.3455 146.043 53.3561 146.187 53.373V58.5591C146.525 58.686 146.764 58.832 146.904 58.9971L146.777 60H143.781L143.654 58.9971C143.772 58.832 144.011 58.686 144.371 58.5591V54.9409C144.062 54.8394 143.823 54.6934 143.654 54.5029ZM147.424 54.5029L147.551 53.5C148.017 53.3942 148.446 53.3413 148.84 53.3413C149.03 53.3413 149.204 53.3455 149.36 53.354C149.521 53.3582 149.665 53.3646 149.792 53.373V54.0205C149.999 53.847 150.257 53.701 150.566 53.5825C150.88 53.4598 151.163 53.3984 151.417 53.3984C152.403 53.3984 153.061 53.6439 153.391 54.1348C153.607 53.9274 153.893 53.7539 154.248 53.6143C154.604 53.4704 154.934 53.3984 155.238 53.3984C155.873 53.3984 156.366 53.4894 156.717 53.6714C157.069 53.8534 157.312 54.1665 157.447 54.6108C157.587 55.0509 157.657 55.6646 157.657 56.4517V58.5591C158 58.6903 158.236 58.8363 158.368 58.9971L158.241 60H155.251L155.118 58.9971C155.236 58.832 155.475 58.686 155.835 58.5591V55.9819C155.835 55.508 155.771 55.1927 155.645 55.0361C155.543 54.9092 155.382 54.833 155.162 54.8076C154.942 54.7822 154.705 54.8055 154.451 54.8774C154.197 54.9451 153.969 55.0615 153.766 55.2266C153.812 55.5397 153.835 55.9481 153.835 56.4517V58.5591C154.178 58.6903 154.415 58.8363 154.546 58.9971L154.419 60H151.43L151.296 58.9971C151.415 58.832 151.654 58.686 152.014 58.5591V55.9819C152.014 55.508 151.95 55.1927 151.823 55.0361C151.722 54.9134 151.561 54.8394 151.341 54.814C151.125 54.7843 150.89 54.8034 150.636 54.8711C150.387 54.9388 150.16 55.0531 149.957 55.2139V58.5591C150.296 58.686 150.535 58.832 150.674 58.9971L150.547 60H147.551L147.424 58.9971C147.543 58.832 147.782 58.686 148.142 58.5591V54.9409C147.833 54.8394 147.594 54.6934 147.424 54.5029ZM161.935 60.1016C160.894 60.1016 160.111 59.8244 159.586 59.27C159.062 58.7157 158.799 57.9095 158.799 56.8516C158.799 56.2126 158.89 55.6624 159.072 55.2012C159.254 54.7357 159.502 54.376 159.815 54.1221C160.42 53.6396 161.127 53.3984 161.935 53.3984C162.472 53.3984 162.925 53.4873 163.293 53.665C163.666 53.8385 163.947 54.1326 164.138 54.5474C164.332 54.9578 164.43 55.5186 164.43 56.2295C164.43 56.8558 164.121 57.1689 163.503 57.1689H160.685C160.718 57.7148 160.858 58.0999 161.104 58.3242C161.353 58.5485 161.747 58.6606 162.284 58.6606C162.576 58.6606 162.855 58.6268 163.122 58.5591C163.393 58.4871 163.59 58.4173 163.712 58.3496L163.896 58.248L164.284 59.2827C164.237 59.3377 164.163 59.4139 164.062 59.5112C163.994 59.5747 163.856 59.653 163.649 59.7461C163.442 59.8392 163.188 59.9217 162.887 59.9937C162.591 60.0656 162.274 60.1016 161.935 60.1016ZM160.697 56.0898L162.754 56.0073C162.771 55.9015 162.779 55.7555 162.779 55.5693C162.779 55.3958 162.709 55.2118 162.57 55.0171C162.43 54.8224 162.189 54.7251 161.846 54.7251C161.503 54.7251 161.241 54.8288 161.059 55.0361C160.877 55.2435 160.757 55.5947 160.697 56.0898Z" fill="white"/>
</svg>
